<svg xmlns="http://www.w3.org/2000/svg" viewBox="0 0 32 32">
  <rect width="32" height="32" rx="7" fill="#4f46e5" />
  <g fill="#ffffff">
    <!-- finder (top-left) -->
    <path d="M5 5h8v8H5V5zm2 2v4h4V7H7z" />
    <rect x="8" y="8" width="2" height="2" />
    <!-- finder (top-right) -->
    <path d="M19 5h8v8h-8V5zm2 2v4h4V7h-4z" />
    <rect x="22" y="8" width="2" height="2" />
    <!-- finder (bottom-left) -->
    <path d="M5 19h8v8H5v-8zm2 2v4h4v-4H7z" />
    <rect x="8" y="22" width="2" height="2" />
    <!-- data dots -->
    <rect x="16" y="6" width="2" height="2" />
    <rect x="16" y="10" width="2" height="2" />
    <rect x="19" y="16" width="2" height="2" />
    <rect x="23" y="16" width="2" height="2" />
    <rect x="16" y="19" width="2" height="2" />
    <rect x="22" y="19" width="2" height="2" />
    <rect x="25" y="22" width="2" height="2" />
    <rect x="19" y="23" width="2" height="2" />
    <rect x="16" y="16" width="2" height="2" />
    <rect x="22" y="25" width="2" height="2" />
  </g>
</svg>
